<svg xmlns="http://www.w3.org/2000/svg" width="400px" height="400px" aria-labelledby="nakedjsx-title"><title id="nakedjsx-title">NakedJSX</title><style>@media (prefers-color-scheme:dark){g{fill:#fff}}</style><g fill="#000" fill-rule="nonzero"><path d="M101.6286178 224.79245874v95.43924586c0 6.4149834-.3930892 11.9135414-1.1792675 16.4956724-.7861784 4.582131-2.1619906 8.346024-4.1274365 11.29168-1.965446 2.945656-4.6515555 5.105803-8.0583284 6.480443-3.406773 1.374639-7.7307541 2.061959-12.9719433 2.061959-6.9445757 0-12.2185224-1.34191-15.82184-4.02573-3.6033176-2.683819-6.1911547-5.924041-7.7635115-9.720664-1.5723568-3.796623-2.4895649-7.789623-2.7516243-11.979-.2620595-4.189377-.4586041-7.789623-.5896338-10.8007374H35c0 6.1531474.52411892 12.1099184 1.57235676 17.8703114 1.04823785 5.760394 3.0136838 10.833467 5.89633786 15.219221 2.88265408 4.385754 6.87906088 7.920541 11.98922028 10.604361 5.1101595 2.68382 11.661646 4.02573 19.6544596 4.02573 7.5997243 0 13.9874237-.850968 19.163098-2.552902 5.1756744-1.701935 9.3686257-4.254836 12.5788541-7.658705 3.2102284-3.403869 5.5360061-7.724164 6.9773332-12.960885 1.441327-5.236722 2.1619905-11.455328 2.1619905-18.65582V224.79245874h-13.3650325ZM149.585499 318.8570653h-13.365032c-.39309 8.6405897.753421 16.0374587 3.43953 22.1906067 2.68611 6.153147 6.518729 11.193492 11.497859 15.121033 4.97913 3.927541 11.006497 6.840467 18.082103 8.738778 7.075605 1.898312 14.740844 2.847468 22.995717 2.847468s15.330479-.752779 21.226817-2.258337c5.896337-1.505557 10.84271-3.469327 14.839117-5.891311 3.996406-2.421984 7.14112-5.138533 9.43414-8.149648 2.29302-3.011114 4.061922-5.9895 5.306704-8.935155 1.244783-2.945656 2.030961-5.727664 2.358535-8.346025.327575-2.618361.491362-4.713049.491362-6.284065 0-5.760394-.949966-10.6698201-2.849897-14.7282791-1.899931-4.058459-4.520525-7.4950574-7.861784-10.3097951-3.341258-2.8147377-7.206635-5.1712623-11.596131-7.0695738-4.389496-1.8983115-9.073809-3.5020574-14.052938-4.8112377l-34.19876-8.4442131c-2.882654-.6545902-5.601521-1.5055574-8.156601-2.5529016-2.555079-1.0473443-4.815342-2.4219836-6.780788-4.1239181-1.965446-1.7019344-3.505045-3.7638934-4.618798-6.185877-1.113753-2.4219836-1.670629-5.2694508-1.670629-8.5424017 0-5.2367213.982723-9.6224754 2.948169-13.1572623 1.965446-3.5347868 4.553283-6.3822541 7.763511-8.5424016 3.210229-2.1601475 6.944576-3.7311639 11.203042-4.7130492 4.258466-.9818852 8.68072-1.4728278 13.26676-1.4728278 4.97913 0 9.728958.6873196 14.249484 2.061959 4.520525 1.3746393 8.516932 3.4038688 11.98922 6.0876885 3.472288 2.6838197 6.289427 6.0222295 8.451417 10.0152295 2.161991 3.993 3.374016 8.6733197 3.636075 14.040959h13.365033c0-7.2004918-1.40857-13.5172869-4.225709-18.9503852-2.817139-5.4330984-6.584244-9.9825-11.301314-13.6482049-4.71707-3.66570496-10.220319-6.41498365-16.509746-8.24783611-6.289427-1.83285246-12.906429-2.74927869-19.851004-2.74927869-9.82723 0-17.885558 1.40736885-24.174985 4.22210656-6.289427 2.8147377-11.2358 6.25133604-14.839117 10.30979504-3.603318 4.0584591-6.060125 8.3787541-7.370423 12.9608853-1.310297 4.5821311-1.965446 8.5751311-1.965446 11.979 0 5.4985574.884451 10.1461475 2.653352 13.9427705 1.768902 3.7966229 4.094679 7.0041147 6.977333 9.6224754 2.882655 2.6183606 6.25667 4.7130492 10.122047 6.2840656 3.865377 1.5710164 7.829027 2.8801967 11.890948 3.9275409l31.250591 7.658705c3.275743.7855082 6.617001 1.8001229 10.023774 3.0438442 3.406773 1.2437213 6.518729 2.8474672 9.335868 4.8112377 2.81714 1.9637705 5.11016 4.3857541 6.879061 7.2659508 1.768902 2.8801968 2.653352 6.284066 2.653352 10.211607 0 5.105803-1.244782 9.458827-3.734347 13.059073-2.489565 3.600246-5.601521 6.545902-9.335868 8.836968-3.734348 2.291065-7.763512 3.96027-12.087493 5.007614-4.323981 1.047345-8.320388 1.571017-11.98922 1.571017-6.420457 0-12.447825-.621861-18.082103-1.865582-5.634278-1.243722-10.515136-3.305681-14.642572-6.185877-4.127437-2.880197-7.370423-6.742279-9.728958-11.586246-2.358535-4.843967-3.472288-10.866197-3.341258-18.0666887ZM253.55759 224.79245874l47.563792 67.94645906-50.315416 72.2667542h14.937389l43.239811-61.8587706 42.650177 61.8587706H367.75l-50.708506-71.8740001 47.956882-68.33921316h-14.93739l-41.07782 58.71673766-39.702008-58.71673766zM101.631824 142.1107768v52.1481807h8.57368542v-29.4531311c0-2.3535607.31941181-4.5221988.95823543-6.5059142.63882365-1.9837155 1.59705905-3.7152637 2.87470625-5.1946447 1.2776473-1.479381 2.8747063-2.6225391 4.7911772-3.4294742 1.9164708-.8069351 4.1859758-1.2104026 6.8085149-1.2104026 3.294985 0 5.8839017.9414243 7.7667503 2.8242728 1.8828485 1.8828486 2.8242728 4.4381431 2.8242728 7.6658835v35.3034105h8.5736854v-34.2947417c0-2.8242728-.2857895-5.3963784-.8573685-7.7163168-.571579-2.3199384-1.5634367-4.320465-2.9755732-6.0015798-1.4121364-1.6811148-3.2613627-2.9923844-5.5476788-3.9338086-2.2863161-.9414243-5.1442112-1.4121365-8.5736854-1.4121365-7.733128 0-13.3816737 3.1604958-16.94563705 9.4814874h-.20173377v-8.2710847H101.631824ZM203.910848 194.0572237c-1.479381.8741797-3.5303414 1.3112696-6.1528804 1.3112696-2.2190716 0-3.9842421-.6220125-5.2955116-1.8660375-1.3112696-1.2440249-1.9669043-3.2781738-1.9669043-6.1024466-2.3535607 2.8242728-5.0937778 4.8584217-8.2206513 6.1024466-3.1268735 1.244025-6.5059143 1.8660375-10.1371222 1.8660375-2.3535607 0-4.5894434-.2689784-6.707648-.8069351-2.1182046-.5379568-3.9506198-1.3785142-5.4972454-2.5216722-1.5466256-1.1431581-2.7738394-2.6393502-3.6816414-4.4885765-.9078019-1.8492263-1.3617029-4.0851089-1.3617029-6.707648 0-2.958762.5043344-5.3795673 1.5130033-7.2624159 1.0086689-1.8828485 2.3367495-3.412663 3.984242-4.5894434 1.6474925-1.1767803 3.5303411-2.0677711 5.6485457-2.6729725 2.1182046-.6052013 4.2868427-1.1095357 6.5059142-1.5130033 2.3535607-.4707121 4.5894434-.8237462 6.707648-1.0591023 2.1182047-.2353561 3.9842421-.571579 5.5981123-1.0086689 1.6138702-.4370898 2.8915174-1.0759134 3.8329417-1.9164708s1.4121364-2.0677712 1.4121364-3.6816414c0-1.8828486-.3530341-3.3958519-1.0591023-4.5390099-.7060682-1.1431581-1.6138702-2.0173378-2.7234059-2.6225391-1.1095358-.6052013-2.3535608-1.0086689-3.7320749-1.2104027-1.3785141-.2017337-2.7402171-.3026006-4.0851089-.3026006-3.631208 0-6.6572146.689257-9.0780199 2.0677712-2.4208053 1.3785141-3.7320748 3.984242-3.9338086 7.8171837h-8.5736854c.1344892-3.2277404.8069351-5.9511463 2.0173378-8.1702178 1.2104026-2.2190715 2.8242728-4.0178644 4.8416105-5.3963785 2.0173378-1.3785141 4.3204651-2.3703718 6.9093818-2.9755732 2.5889168-.6052013 5.3627562-.907802 8.3215182-.907802 2.3535607 0 4.6903103.1681115 7.0102487.5043345 2.3199384.3362229 4.4213319 1.02548 6.3041804 2.0677712 1.8828486 1.0422911 3.3958519 2.504861 4.53901 4.3877096 1.143158 1.8828485 1.7147371 4.3372761 1.7147371 7.3632827v26.830592c0 2.0173378.117678 3.4967188.3530341 4.4381431.235356.9414243 1.02548 1.4121364 2.3703718 1.4121364.7396904 0 1.6138704-.1681115 2.6225394-.5043344v6.6572145Zm-13.9196308-26.7297251c-1.0759134.8069351-2.4880499 1.3953253-4.2364092 1.7651705-1.7483594.3698453-3.5807745.6724459-5.4972454.907802-1.9164708.2353561-3.8497528.5043345-5.799846.8069351-1.9500932.3026007-3.6984525.790124-5.2450781 1.4625699-1.5466256.6724459-2.8074617 1.6306813-3.7825083 2.8747063-.9750466 1.2440249-1.4625699 2.9419508-1.4625699 5.0937778 0 1.4121364.2857895 2.6057279.8573686 3.5807745.571579.9750465 1.3112695 1.7651705 2.2190715 2.3703718s1.9669043 1.0422912 3.1773069 1.3112696c1.2104027.2689783 2.4880499.4034675 3.8329417.4034675 2.8242729 0 5.2450782-.3866564 7.2624159-1.1599692 2.0173378-.7733128 3.6648303-1.7483594 4.9424775-2.9251397 1.2776472-1.1767804 2.2190715-2.4544276 2.8242729-3.8329417.6052013-1.3785142.9078019-2.6729726.9078019-3.8833752v-8.7754192ZM212.383666 122.24v72.0189575h8.573686v-19.7699099l8.069351-7.4641497 17.853439 27.2340596h10.893623l-22.190715-33.1852059 20.677712-18.9629748h-11.498825l-23.804585 22.7959165V122.24zM300.440459 163.1919562h-29.957466c.134489-2.0173377.571579-3.9169974 1.31127-5.6989791.73969-1.7819817 1.748359-3.3454184 3.026006-4.6903103 1.277648-1.3448918 2.807462-2.4039941 4.589444-3.1773069 1.781981-.7733128 3.782508-1.1599692 6.00158-1.1599692 2.151827 0 4.118731.3866564 5.900712 1.1599692 1.781982.7733128 3.328608 1.815604 4.639877 3.1268735 1.31127 1.3112695 2.353561 2.8747063 3.126874 4.6903103.773313 1.8156039 1.227214 3.7320748 1.361703 5.7494125Zm8.271085 14.5248318h-8.472819c-.739691 3.4294742-2.269505 5.9847686-4.589443 7.6658834-2.319939 1.6811148-5.295512 2.5216722-8.92672 2.5216722-2.824273 0-5.2787-.4707121-7.363283-1.4121364-2.084582-.9414243-3.799319-2.2022604-5.144211-3.7825083-1.344892-1.5802479-2.319938-3.3958519-2.92514-5.4468119-.605201-2.05096-.874179-4.2195981-.806935-6.5059142h39.035486c.134489-3.1604958-.151301-6.4891031-.857369-9.9858219-.706068-3.4967187-1.983715-6.7244591-3.832942-9.6832211-1.849226-2.9587621-4.303653-5.3963785-7.363282-7.3128494-3.059629-1.9164708-6.909382-2.8747063-11.549259-2.8747063-3.563963 0-6.842137.672446-9.834521 2.0173378-2.992385 1.3448918-5.581302 3.2277404-7.766751 5.6485457-2.185449 2.4208053-3.883375 5.2787004-5.093778 8.5736854-1.210402 3.294985-1.815604 6.9261929-1.815604 10.8936238.13449 3.9674309.72288 7.6322611 1.765171 10.9944907s2.605728 6.253747 4.69031 8.6745523c2.084583 2.4208053 4.656688 4.3036539 7.716317 5.6485457s6.674026 2.0173378 10.84319 2.0173378c5.917525 0 10.82638-1.4793811 14.726566-4.4381431 3.900186-2.958762 6.421858-7.3632827 7.565017-13.2135622ZM324.648512 168.6387681c0-2.5552944.268978-5.0433443.806935-7.4641496.537957-2.4208053 1.412136-4.5726322 2.622539-6.4554808 1.210403-1.8828486 2.824273-3.3958519 4.84161-4.5390099 2.017338-1.1431581 4.471766-1.7147371 7.363283-1.7147371 2.958762 0 5.480434.5547679 7.565017 1.6643036 2.084582 1.1095358 3.782508 2.5721057 5.093778 4.3877096 1.311269 1.815604 2.269505 3.9169975 2.874706 6.3041805.605201 2.387183.907802 4.8584217.907802 7.4137162 0 2.4208053-.28579 4.8079883-.857369 7.161549-.571579 2.3535607-1.496192 4.4549542-2.773839 6.3041804-1.277647 1.8492263-2.92514 3.3454185-4.942478 4.4885765-2.017337 1.1431581-4.471765 1.7147371-7.363282 1.7147371-2.757029 0-5.161023-.5379567-7.211983-1.6138702s-3.732075-2.5216722-5.043344-4.3372761c-1.31127-1.815604-2.286316-3.8833752-2.92514-6.2033136-.638823-2.3199384-.958235-4.6903103-.958235-7.1111156Zm40.346755 25.6201894V122.24h-8.573686v26.830592h-.201734c-.941424-1.5466256-2.101393-2.841084-3.479907-3.8833751-1.378514-1.0422912-2.841084-1.8828486-4.38771-2.5216722-1.546625-.6388237-3.093251-1.0927246-4.639877-1.361703-1.546625-.2689784-2.992384-.4034676-4.337276-.4034676-3.967431 0-7.447338.7228794-10.439723 2.1686381-2.992384 1.4457587-5.480434 3.3958519-7.464149 5.8502795-1.983716 2.4544276-3.463097 5.3291339-4.438143 8.6241188-.975047 3.294985-1.46257 6.7917038-1.46257 10.4901563 0 3.6984525.504334 7.1951713 1.513003 10.4901563 1.008669 3.294985 2.504861 6.1865024 4.488577 8.6745523 1.983715 2.4880499 4.471765 4.4717653 7.464149 5.9511463 2.992385 1.4793811 6.505915 2.2190716 10.54059 2.2190716 3.631208 0 6.959815-.6388237 9.985822-1.9164709 3.026006-1.2776472 5.245078-3.3622296 6.657214-6.253747h.201734v7.0606821h8.573686Z"/></g></svg>